HIERARCHY
ROOT Hips
{
  OFFSET 40.9192 92.6879 18.85
  CHANNELS 6 Xposition Yposition Zposition Zrotation Xrotation Yrotation
  JOINT LeftUpLeg
  {
    OFFSET 8.64259 1.95398 -2.38835
    CHANNELS 3 Zrotation Xrotation Yrotation
    JOINT LeftLeg
    {
      OFFSET 43.7702 0 0
      CHANNELS 3 Zrotation Xrotation Yrotation
      JOINT LeftFoot
      {
        OFFSET 40.6238 0 0
        CHANNELS 3 Zrotation Xrotation Yrotation
        JOINT LeftToeBase
        {
          OFFSET 12.7242 0 0
          CHANNELS 3 Zrotation Xrotation Yrotation
          End Site
          {
            OFFSET 0 0 0
          }
        }
      }
    }
  }
  JOINT RightUpLeg
  {
    OFFSET -8.2249 1.95398 -2.59336
    CHANNELS 3 Zrotation Xrotation Yrotation
    JOINT RightLeg
    {
      OFFSET 43.5653 0 0
      CHANNELS 3 Zrotation Xrotation Yrotation
      JOINT RightFoot
      {
        OFFSET 40.6238 0 0
        CHANNELS 3 Zrotation Xrotation Yrotation
        JOINT RightToeBase
        {
          OFFSET 12.7242 0 0
          CHANNELS 3 Zrotation Xrotation Yrotation
          End Site
          {
            OFFSET 0 0 0
          }
        }
      }
    }
  }
  JOINT Spine
  {
    OFFSET 0.165834 0.87714 6.61349
    CHANNELS 3 Zrotation Xrotation Yrotation
    JOINT Spine1
    {
      OFFSET 7.38963 1.71661e-005 0
      CHANNELS 3 Zrotation Xrotation Yrotation
      JOINT Spine2
      {
        OFFSET 11.9445 1.14441e-005 0
        CHANNELS 3 Zrotation Xrotation Yrotation
        JOINT Spine3
        {
          OFFSET 14.7254 4.19617e-005 0
          CHANNELS 3 Zrotation Xrotation Yrotation
          JOINT Spine4
          {
            OFFSET 10.9679 0 0
            CHANNELS 3 Zrotation Xrotation Yrotation
            JOINT RightShoulder
            {
              OFFSET 2.46616 -1.6653 3.69651
              CHANNELS 3 Zrotation Xrotation Yrotation
              JOINT RightArm
              {
                OFFSET 13.0012 0 0
                CHANNELS 3 Zrotation Xrotation Yrotation
                JOINT RightForeArm
                {
                  OFFSET 28.7848 1.52588e-005 0
                  CHANNELS 3 Zrotation Xrotation Yrotation
                  JOINT RightHand
                  {
                    OFFSET 26.5688 1.52588e-005 0
                    CHANNELS 3 Zrotation Xrotation Yrotation
                    End Site
                    {
                      OFFSET 0 0 0
                    }
                  }
                }
              }
            }
            JOINT LeftShoulder
            {
              OFFSET 2.38034 -1.29275 -3.7523
              CHANNELS 3 Zrotation Xrotation Yrotation
              JOINT LeftArm
              {
                OFFSET 16.3182 6.10351e-005 0
                CHANNELS 3 Zrotation Xrotation Yrotation
                JOINT LeftForeArm
                {
                  OFFSET 27.0901 0 0
                  CHANNELS 3 Zrotation Xrotation Yrotation
                  JOINT LeftHand
                  {
                    OFFSET 24.5451 1.52588e-005 0
                    CHANNELS 3 Zrotation Xrotation Yrotation
                    End Site
                    {
                      OFFSET 0 0 0
                    }
                  }
                }
              }
            }
            JOINT Neck
            {
              OFFSET 5.0226 -0.0266342 0
              CHANNELS 3 Zrotation Xrotation Yrotation
              JOINT Head
              {
                OFFSET 6.69363 2.86102e-005 0
                CHANNELS 3 Zrotation Xrotation Yrotation
                End Site
                {
                  OFFSET 0 0 0
                }
              }
            }
          }
        }
      }
    }
  }
}
MOTION
Frames:	12
Frame Time:	0.0416667
29.6431 96.4959 -27.5261 100.348 -41.0283 94.9549 -171.726 -0.063153 86.2114 -23.7387 14.0522 -4.61269 66.2252 5.66638 4.11259 33.6402 3.72566 3.31234 177.704 18.2316 89.2228 -47.5904 -1.66649 -3.44824 60.7439 -2.09499 -1.21993 36.5074 0.364656 -8.18431 -0.0754637 7.1511 -89.7873 12.5715 -0.0484713 0.43095 0.900444 -0.0294685 0.432663 -21.6342 -0.17576 0.396459 -1.6215 -0.175745 0.396463 95.4519 -45.0413 -93.1112 17.5428 -24.2784 -14.6315 12.1942 -3.09362 -85.1646 -17.0357 -0.567838 -0.973499 -93.1611 -44.4757 72.4702 -12.2724 9.26999 -15.1458 -24.1314 -17.6023 -59.8854 -2.71287 -0.0795149 -12.89 -7.34317 3.87089 0.625049 -21.1478 2.93936 6.44618 
37.0465 95.9754 -21.7715 96.6251 -36.695 92.0668 -171.694 -4.19742 86.8048 -21.7906 15.7661 -4.27217 67.3326 6.15054 5.54773 37.4759 6.85156 0.918392 174.665 15.6864 89.4522 -14.2074 -7.30953 -0.269439 62.3077 -2.4544 -1.49023 45.4091 0.00363418 -10.2081 -0.311548 6.94936 -89.7336 12.9762 -0.49077 0.59255 1.30524 -0.464222 0.61357 -21.2301 -0.646173 0.417657 -1.2174 -0.646157 0.417659 96.1751 -44.9221 -91.9347 17.7674 -20.1346 -14.3827 16.1683 -1.28346 -83.4734 -12.9694 -0.183203 -2.75303 -93.5281 -43.967 71.7379 -12.0342 10.7225 -17.359 -20.9021 -13.796 -63.7086 2.80184 -0.238395 -7.64134 -6.32472 2.09808 -1.10135 -20.5918 1.52612 4.67387 
44.5419 94.3926 -15.8154 95.4433 -32.5956 89.6991 -171.556 -9.56022 87.2601 -21.8627 18.8374 -3.85611 68.2361 7.74632 5.29323 40.853 9.70012 3.42129 173.426 19.0237 88.3586 -1.50527 -2.49905 1.15538 64.1316 -1.5898 -0.834497 53.8102 0.376547 -5.53587 -0.581064 6.90201 -89.542 13.0741 -0.933108 1.03177 1.40307 -0.88678 1.07182 -21.1331 -1.20004 0.703639 -1.12042 -1.20003 0.703631 96.8894 -44.2116 -90.8381 17.4069 -17.0426 -16.0339 18.8039 -0.301187 -82.4316 -9.78469 -0.166217 -1.0128 -93.9359 -43.7151 71.0138 -10.8378 11.361 -20.5031 -18.2304 -11.2533 -66.923 6.08805 -0.111407 -4.68533 -5.31941 0.745336 -2.16817 -20.3362 0.491747 2.94853 
52.6281 92.1823 -9.2855 96.5275 -31.4714 89.9384 -171.232 -13.0708 89.2093 -29.1117 24.7218 -2.32649 65.7068 5.86375 4.6562 48.3388 16.1548 4.94241 173.545 21.4426 89.5151 -9.9197 1.14871 1.81488 64.0734 -1.75783 -0.959071 48.1069 0.161203 -7.86717 -0.659466 7.00219 -89.5272 12.8751 -1.08295 1.07294 1.2041 -1.03468 1.11956 -21.333 -1.35534 0.697855 -1.32036 -1.35533 0.697856 97.0533 -44.0821 -90.5792 16.2789 -15.701 -17.7742 20.8259 0.507894 -81.1964 -8.09783 -0.0555421 -0.96304 -94.3248 -43.5907 70.3592 -12.0422 10.6439 -20.2591 -18.2531 -10.1555 -70.5087 9.22207 0.0932956 -2.53277 -5.23696 0.286362 -2.37668 -20.0136 0.203719 1.83097 
61.7682 90.9814 -2.50134 97.8376 -32.5231 94.748 -169.811 -11.2127 95.4229 -40.951 27.1371 0.233088 47.6091 -7.65872 -7.89028 53.9238 21.6481 7.8697 176.246 25.3453 94.4861 -30.074 -1.30272 0.67852 61.0422 -1.06757 -0.565258 36.8639 0.349967 -5.61386 -0.608249 7.00668 -90.1101 12.8645 -1.26067 -0.0673225 1.19416 -1.26241 -0.0117662 -21.3457 -1.18215 -0.443145 -1.33307 -1.18214 -0.443144 96.7773 -44.1154 -91.0363 15.6066 -16.6361 -17.8437 21.0905 0.53828 -80.5138 -6.95687 -0.0136455 -0.547655 -93.9903 -45.416 71.4568 -13.3345 10.8129 -17.5098 -16.8261 -9.27623 -72.5946 9.00925 0.348632 0.0521024 -6.50604 0.923531 -0.432974 -20.7342 0.722687 1.6642 
69.2936 90.8076 3.91834 101.365 -32.9931 97.6185 -172.069 -2.57914 96.9952 -59.6719 25.4482 1.90173 33.9431 -14.7852 -12.9434 37.7982 7.54281 15.3812 176.777 21.7336 96.8056 -41.652 -1.34871 0.121202 69.7332 -3.88916 -2.01911 25.4419 0.108408 -2.94423 -0.492703 7.2644 -90.1136 12.345 -1.03301 -0.109749 0.674506 -1.03684 -0.0641816 -21.8635 -0.952264 -0.415162 -1.85088 -0.952254 -0.415169 96.1102 -44.5649 -92.0896 16.5948 -16.9476 -16.0038 20.8566 0.268344 -80.4542 -7.15957 -0.0623251 0.346374 -94.1101 -44.768 71.0713 -14.5035 10.8889 -15.324 -15.5854 -8.64594 -73.4863 9.65747 0.406156 0.341242 -7.57276 0.834493 -0.42418 -20.4539 0.727007 0.969456 
76.8453 93.0243 10.3806 102.275 -34.6768 97.4911 -171.966 8.65041 95.679 -66.6758 19.1802 0.928647 46.4362 -7.58451 -2.3477 39.445 9.06416 12.8666 177.461 12.5311 96.8361 -38.6327 -1.87957 -0.657301 74.387 -5.80577 -2.80946 24.5646 -0.0201614 -1.87091 -0.186906 7.36822 -89.95 12.1394 -0.347793 0.138312 0.46847 -0.341347 0.153487 -22.0672 -0.373282 0.0273971 -2.05452 -0.373291 0.027393 95.9158 -44.4777 -92.4242 17.8716 -16.9522 -14.3875 20.8181 0.384952 -79.9384 -7.68741 -0.0417791 -0.959404 -94.2374 -45.4594 71.0882 -13.6353 11.5666 -16.0574 -16.7249 -9.13113 -72.4415 10.9177 0.385621 -0.288631 -8.19178 0.361727 -0.701836 -19.9617 0.295907 0.737353 
84.2631 95.1956 16.563 100.985 -37.8421 95.1088 -170.578 16.013 92.9258 -54.6496 14.2403 -1.18539 54.6913 -2.08428 -0.663259 41.0915 10.7171 13.435 177.663 3.89199 95.448 -31.9996 -4.41349 -2.02257 75.3674 -6.4578 -3.05869 26.8054 0.0341965 -1.62297 0.153679 7.26853 -89.6531 12.3344 0.469965 0.638109 0.663348 0.497596 0.616797 -21.8707 0.256469 0.749849 -1.85805 0.256466 0.749844 95.5086 -44.0642 -93.162 20.1877 -15.5763 -12.5049 16.1194 -1.74557 -80.6298 -5.20535 0.00670094 -0.232195 -93.3961 -45.0572 72.275 -14.2322 12.0494 -15.2396 -17.0485 -9.05018 -73.007 11.1845 0.298663 -1.09176 -8.51213 0.66458 -0.306188 -19.259 0.677274 0.039163 
91.7982 95.9137 22.2111 98.791 -41.6166 93.2829 -170.697 17.4623 91.3446 -27.0546 9.21362 -2.79733 57.9595 -0.0367927 -0.0343327 44.4401 14.4431 16.3868 176.394 -2.59589 93.4743 -27.2537 -8.66261 -2.32057 75.4697 -6.6733 -3.14052 29.0737 0.163815 -2.49739 0.494139 7.13899 -89.5569 12.5919 1.19294 0.746133 0.921269 1.22465 0.692887 -21.615 0.913561 1.07016 -1.60236 0.913552 1.07016 94.8206 -42.4572 -94.5788 21.5867 -15.9598 -11.7307 16.8589 -0.999202 -82.1705 -7.00051 -0.0532438 -0.584022 -92.4956 -45.2475 73.7378 -14.0349 12.246 -14.4875 -18.2623 -8.93044 -75.0776 11.1207 0.2052 -1.86406 -7.53577 1.12918 1.77985 -18.6661 1.22827 -1.48047 
99.8583 95.2124 27.655 96.226 -45.7627 92.7371 -172.084 18.899 92.226 -3.32858 6.1107 -2.58495 62.6773 1.8725 0.357827 45.6726 16.224 19.2621 174.9 -7.81189 91.7429 -24.2673 -11.1721 -2.1141 75.7586 -7.19314 -3.37474 33.6761 0.275398 -1.416 0.830678 7.00235 -89.6883 12.8672 1.79881 0.40678 1.19745 1.81497 0.327184 -21.3454 1.59337 0.928706 -1.33279 1.5934 0.92871 94.2707 -41.8089 -95.632 20.4877 -16.7593 -12.5717 19.3232 -0.316924 -82.2493 -4.53248 0.16517 -4.49336 -90.9394 -45.5412 76.2522 -13.9564 12.3792 -14.2042 -19.1857 -8.75077 -77.0805 10.0507 -0.0505091 -4.00227 -5.84589 1.52425 3.17974 -18.0926 1.54762 -1.86574 
108.368 93.2329 33.462 95.7014 -49.383 93.0094 -171.112 21.8006 92.3632 -2.95962 2.59788 -3.67922 63.126 2.12764 0.286346 47.071 17.6838 19.047 175.387 -9.34676 90.6111 -32.582 -15.3728 -4.91971 74.5082 -6.86246 -3.32774 42.4232 0.480669 -4.60133 1.22395 6.98773 -89.6651 12.8989 2.59092 0.358615 1.23053 2.60418 0.244151 -21.3225 2.3633 1.12113 -1.30987 2.36327 1.12111 93.6013 -41.4297 -96.8529 21.0235 -16.2487 -12.069 21.1839 0.506449 -81.9103 -3.92187 0.217298 -7.16461 -90.1239 -45.6292 77.5525 -12.1983 13.4398 -15.8885 -20.7689 -9.27327 -77.3822 8.26154 -0.228961 -5.83276 -5.80714 1.32619 3.31405 -16.7856 1.4781 -3.39531 
117.833 91.8244 39.9908 95.912 -46.4339 91.3288 -171.775 25.2062 88.6957 -19.1716 7.70557 -4.08782 56.4854 -1.96461 -3.81573 40.327 9.7888 10.4178 174.082 -5.04936 86.2996 -47.5778 -15.5789 -5.40381 55.7204 0.17663 0.838787 50.783 1.25033 2.7917 0.880903 6.94338 -89.3399 12.9759 2.06574 1.06665 1.30612 2.11068 0.974665 -21.2333 1.64971 1.63819 -1.22069 1.6497 1.63818 93.1815 -43.9527 -97.0615 21.0832 -15.9913 -9.0451 21.3785 0.733042 -81.5328 -3.39986 0.224464 -8.3638 -89.7985 -46.2206 78.1984 -11.9547 14.4553 -15.4818 -18.7008 -8.81594 -77.7675 7.45681 -0.281608 -6.54669 -7.06995 0.734054 1.69592 -17.1482 1.1217 -4.41513 
